<svg height="382pt" viewBox="0 -61 382.29333 382" width="382pt" xmlns="http://www.w3.org/2000/svg"><g fill="#0e65e5"><path d="m6.828125 41.105469c0-11.3125 9.160156-20.480469 20.417969-20.480469h123c11.277344 0 20.421875 9.195312 20.421875 20.480469 0 11.3125-9.160157 20.480469-20.417969 20.480469h-123.003906c-11.277344 0-20.417969-9.191407-20.417969-20.480469zm0 0"/><path d="m150.246094 68.414062h-123c-15.027344 0-27.246094-12.25-27.246094-27.308593 0-15.054688 12.21875-27.304688 27.246094-27.304688h123c15.027344 0 27.246094 12.25 27.246094 27.304688 0 15.058593-12.21875 27.308593-27.246094 27.308593zm-123-40.960937c-7.492188 0-13.59375 6.125-13.59375 13.652344 0 7.53125 6.101562 13.65625 13.59375 13.65625h123c7.496094 0 13.59375-6.125 13.59375-13.65625 0-7.527344-6.097656-13.652344-13.59375-13.652344zm0 0"/><path d="m6.828125 136.679688c0-11.3125 9.160156-20.480469 20.417969-20.480469h123c11.277344 0 20.417968 9.191406 20.417968 20.480469 0 11.3125-9.160156 20.480468-20.417968 20.480468h-123c-11.277344 0-20.417969-9.191406-20.417969-20.480468zm0 0"/><path d="m150.246094 163.988281h-123c-15.027344 0-27.246094-12.253906-27.246094-27.308593 0-15.054688 12.21875-27.304688 27.246094-27.304688h123c15.027344 0 27.246094 12.25 27.246094 27.304688 0 15.054687-12.21875 27.308593-27.246094 27.308593zm-123-40.960937c-7.492188 0-13.59375 6.121094-13.59375 13.652344s6.101562 13.652343 13.59375 13.652343h123c7.496094 0 13.59375-6.121093 13.59375-13.652343s-6.097656-13.652344-13.59375-13.652344zm0 0"/><path d="m6.828125 232.253906c0-11.3125 9.160156-20.480468 20.417969-20.480468h123c11.277344 0 20.417968 9.191406 20.417968 20.480468 0 11.3125-9.160156 20.480469-20.417968 20.480469h-123c-11.277344 0-20.417969-9.191406-20.417969-20.480469zm0 0"/><path d="m150.246094 259.558594h-123c-15.027344 0-27.246094-12.25-27.246094-27.304688 0-15.058594 12.21875-27.308594 27.246094-27.308594h123c15.027344 0 27.246094 12.25 27.246094 27.308594 0 15.054688-12.21875 27.304688-27.246094 27.304688zm-123-40.957032c-7.492188 0-13.59375 6.121094-13.59375 13.652344 0 7.527344 6.101562 13.652344 13.59375 13.652344h123c7.496094 0 13.59375-6.125 13.59375-13.652344 0-7.53125-6.097656-13.652344-13.59375-13.652344zm0 0"/><path d="m211.625 41.105469c0-11.3125 9.160156-20.480469 20.421875-20.480469h123c11.277344 0 20.417969 9.195312 20.417969 20.480469 0 11.3125-9.15625 20.480469-20.417969 20.480469h-123c-11.28125 0-20.421875-9.191407-20.421875-20.480469zm0 0"/><path d="m355.046875 68.414062h-123c-15.027344 0-27.246094-12.25-27.246094-27.308593 0-15.054688 12.21875-27.304688 27.246094-27.304688h123c15.027344 0 27.246094 12.25 27.246094 27.304688 0 15.058593-12.21875 27.308593-27.246094 27.308593zm-123-40.960937c-7.492187 0-13.59375 6.125-13.59375 13.652344 0 7.53125 6.101563 13.65625 13.59375 13.65625h123c7.492187 0 13.59375-6.125 13.59375-13.65625 0-7.527344-6.101563-13.652344-13.59375-13.652344zm0 0"/><path d="m211.625 136.679688c0-11.3125 9.160156-20.480469 20.421875-20.480469h123c11.277344 0 20.417969 9.191406 20.417969 20.480469 0 11.3125-9.160156 20.480468-20.417969 20.480468h-123c-11.28125 0-20.421875-9.191406-20.421875-20.480468zm0 0"/><path d="m355.046875 163.988281h-123c-15.027344 0-27.246094-12.253906-27.246094-27.308593 0-15.054688 12.21875-27.304688 27.246094-27.304688h123c15.027344 0 27.246094 12.25 27.246094 27.304688 0 15.054687-12.21875 27.308593-27.246094 27.308593zm-123-40.960937c-7.492187 0-13.59375 6.121094-13.59375 13.652344s6.101563 13.652343 13.59375 13.652343h123c7.492187 0 13.59375-6.121093 13.59375-13.652343s-6.101563-13.652344-13.59375-13.652344zm0 0"/><path d="m211.625 232.253906c0-11.3125 9.160156-20.480468 20.421875-20.480468h123c11.277344 0 20.417969 9.191406 20.417969 20.480468 0 11.3125-9.160156 20.480469-20.417969 20.480469h-123c-11.28125 0-20.421875-9.191406-20.421875-20.480469zm0 0"/><path d="m355.046875 259.558594h-123c-15.027344 0-27.246094-12.25-27.246094-27.304688 0-15.058594 12.21875-27.308594 27.246094-27.308594h123c15.027344 0 27.246094 12.25 27.246094 27.308594 0 15.054688-12.21875 27.304688-27.246094 27.304688zm-123-40.957032c-7.492187 0-13.59375 6.121094-13.59375 13.652344 0 7.527344 6.101563 13.652344 13.59375 13.652344h123c7.492187 0 13.59375-6.125 13.59375-13.652344 0-7.53125-6.101563-13.652344-13.59375-13.652344zm0 0"/></g><path d="m6.828125 27.453125c0-11.3125 9.160156-20.480469 20.417969-20.480469h123c11.277344 0 20.421875 9.191406 20.421875 20.480469 0 11.3125-9.160157 20.480469-20.417969 20.480469h-123.003906c-11.277344 0-20.417969-9.191406-20.417969-20.480469zm0 0" fill="#d7e9ff"/><path d="m150.246094 54.761719h-123c-15.027344 0-27.246094-12.253907-27.246094-27.308594s12.21875-27.304687 27.246094-27.304687h123c15.027344 0 27.246094 12.25 27.246094 27.304687s-12.21875 27.308594-27.246094 27.308594zm-123-40.960938c-7.492188 0-13.59375 6.121094-13.59375 13.652344s6.101562 13.652344 13.59375 13.652344h123c7.496094 0 13.59375-6.121094 13.59375-13.652344s-6.097656-13.652344-13.59375-13.652344zm0 0" fill="#0e65e5"/><path d="m6.828125 123.027344c0-11.3125 9.160156-20.480469 20.417969-20.480469h123c11.277344 0 20.417968 9.191406 20.417968 20.480469 0 11.3125-9.160156 20.480468-20.417968 20.480468h-123c-11.277344 0-20.417969-9.191406-20.417969-20.480468zm0 0" fill="#d7e9ff"/><path d="m150.246094 150.332031h-123c-15.027344 0-27.246094-12.25-27.246094-27.304687 0-15.058594 12.21875-27.308594 27.246094-27.308594h123c15.027344 0 27.246094 12.25 27.246094 27.308594 0 15.054687-12.21875 27.304687-27.246094 27.304687zm-123-40.957031c-7.492188 0-13.59375 6.121094-13.59375 13.652344 0 7.527344 6.101562 13.652344 13.59375 13.652344h123c7.496094 0 13.59375-6.125 13.59375-13.652344 0-7.53125-6.097656-13.652344-13.59375-13.652344zm0 0" fill="#0e65e5"/><path d="m6.828125 218.601562c0-11.3125 9.160156-20.480468 20.417969-20.480468h123c11.277344 0 20.417968 9.191406 20.417968 20.480468 0 11.308594-9.160156 20.476563-20.417968 20.476563h-123c-11.277344 0-20.417969-9.191406-20.417969-20.476563zm0 0" fill="#d7e9ff"/><path d="m150.246094 245.90625h-123c-15.027344 0-27.246094-12.25-27.246094-27.304688 0-15.058593 12.21875-27.308593 27.246094-27.308593h123c15.027344 0 27.246094 12.25 27.246094 27.308593 0 15.054688-12.21875 27.304688-27.246094 27.304688zm-123-40.960938c-7.492188 0-13.59375 6.125-13.59375 13.65625 0 7.527344 6.101562 13.652344 13.59375 13.652344h123c7.496094 0 13.59375-6.125 13.59375-13.652344 0-7.53125-6.097656-13.65625-13.59375-13.65625zm0 0" fill="#0e65e5"/><path d="m211.625 27.453125c0-11.3125 9.160156-20.480469 20.421875-20.480469h123c11.277344 0 20.417969 9.191406 20.417969 20.480469 0 11.3125-9.15625 20.480469-20.417969 20.480469h-123c-11.28125 0-20.421875-9.191406-20.421875-20.480469zm0 0" fill="#2a8ee6"/><path d="m355.046875 54.761719h-123c-15.027344 0-27.246094-12.253907-27.246094-27.308594s12.21875-27.304687 27.246094-27.304687h123c15.027344 0 27.246094 12.25 27.246094 27.304687s-12.21875 27.308594-27.246094 27.308594zm-123-40.960938c-7.492187 0-13.59375 6.121094-13.59375 13.652344s6.101563 13.652344 13.59375 13.652344h123c7.492187 0 13.59375-6.121094 13.59375-13.652344s-6.101563-13.652344-13.59375-13.652344zm0 0" fill="#0e65e5"/><path d="m211.625 123.027344c0-11.3125 9.160156-20.480469 20.421875-20.480469h123c11.277344 0 20.417969 9.191406 20.417969 20.480469 0 11.3125-9.160156 20.480468-20.417969 20.480468h-123c-11.28125 0-20.421875-9.191406-20.421875-20.480468zm0 0" fill="#2a8ee6"/><path d="m355.046875 150.332031h-123c-15.027344 0-27.246094-12.25-27.246094-27.304687 0-15.058594 12.21875-27.308594 27.246094-27.308594h123c15.027344 0 27.246094 12.25 27.246094 27.308594 0 15.054687-12.21875 27.304687-27.246094 27.304687zm-123-40.957031c-7.492187 0-13.59375 6.121094-13.59375 13.652344 0 7.527344 6.101563 13.652344 13.59375 13.652344h123c7.492187 0 13.59375-6.125 13.59375-13.652344 0-7.53125-6.101563-13.652344-13.59375-13.652344zm0 0" fill="#0e65e5"/><path d="m211.625 218.601562c0-11.3125 9.160156-20.480468 20.421875-20.480468h123c11.277344 0 20.417969 9.191406 20.417969 20.480468 0 11.308594-9.160156 20.476563-20.417969 20.476563h-123c-11.28125 0-20.421875-9.191406-20.421875-20.476563zm0 0" fill="#2a8ee6"/><path d="m355.046875 245.90625h-123c-15.027344 0-27.246094-12.25-27.246094-27.304688 0-15.058593 12.21875-27.308593 27.246094-27.308593h123c15.027344 0 27.246094 12.25 27.246094 27.308593 0 15.054688-12.21875 27.304688-27.246094 27.304688zm-123-40.960938c-7.492187 0-13.59375 6.125-13.59375 13.65625 0 7.527344 6.101563 13.652344 13.59375 13.652344h123c7.492187 0 13.59375-6.125 13.59375-13.652344 0-7.53125-6.101563-13.65625-13.59375-13.65625zm0 0" fill="#0e65e5"/><path d="m320.851562 157.160156c-3.773437 0-6.824218-3.058594-6.824218-6.828125v-27.304687c0-3.769532 3.050781-6.828125 6.824218-6.828125 3.773438 0 6.828126 3.058593 6.828126 6.828125v27.304687c0 3.769531-3.054688 6.828125-6.828126 6.828125zm0 0" fill="#fff"/><path d="m334.507812 143.507812h-27.308593c-3.773438 0-6.824219-3.058593-6.824219-6.828124 0-3.769532 3.050781-6.828126 6.824219-6.828126h27.308593c3.773438 0 6.824219 3.058594 6.824219 6.828126 0 3.769531-3.050781 6.828124-6.824219 6.828124zm0 0" fill="#fff"/><path d="m88.746094 34.28125h-54.613282c-3.773437 0-6.824218-3.058594-6.824218-6.828125s3.050781-6.828125 6.824218-6.828125h54.613282c3.773437 0 6.828125 3.058594 6.828125 6.828125s-3.054688 6.828125-6.828125 6.828125zm0 0" fill="#fff"/></svg>